<svg xmlns="http://www.w3.org/2000/svg" xmlns:xlink="http://www.w3.org/1999/xlink" width="205" zoomAndPan="magnify" viewBox="0 0 153.75 37.5" height="50" preserveAspectRatio="xMidYMid meet" version="1.2"><defs><clipPath id="f5d80e1d7e"><path d="M 6 5 L 47 5 L 47 36.683594 L 6 36.683594 Z M 6 5 "/></clipPath><clipPath id="a7b9128c11"><path d="M 3.480469 1.160156 L 50 1.160156 L 50 30 L 3.480469 30 Z M 3.480469 1.160156 "/></clipPath></defs><g id="eb54477c08"><g clip-rule="nonzero" clip-path="url(#f5d80e1d7e)"><path style=" stroke:none;fill-rule:evenodd;fill:#ffffff;fill-opacity:1;" d="M 34.929688 46.007812 L 36.933594 48.011719 L 40.078125 48.011719 C 40.199219 48.324219 40.511719 48.539062 40.871094 48.539062 C 41.339844 48.539062 41.722656 48.160156 41.722656 47.6875 C 41.722656 47.21875 41.339844 46.835938 40.871094 46.835938 C 40.511719 46.835938 40.210938 47.0625 40.078125 47.363281 L 37.199219 47.363281 L 35.398438 45.539062 Z M 25.269531 39.507812 L 25.269531 32.042969 L 24.621094 32.691406 L 24.621094 39.375 L 22.886719 41.109375 L 21.332031 41.109375 L 21.097656 41.207031 L 18.1875 44.117188 C 18.085938 44.074219 17.972656 44.050781 17.863281 44.050781 C 17.390625 44.050781 17.011719 44.429688 17.011719 44.902344 C 17.011719 45.371094 17.390625 45.753906 17.863281 45.753906 C 18.332031 45.753906 18.710938 45.371094 18.710938 44.902344 C 18.710938 44.789062 18.691406 44.679688 18.644531 44.578125 L 21.464844 41.757812 L 23.15625 41.757812 L 23.257812 41.65625 L 25.179688 39.730469 L 25.28125 39.628906 L 25.28125 39.507812 Z M 17.851562 44.578125 C 18.03125 44.578125 18.175781 44.722656 18.175781 44.902344 C 18.175781 45.082031 18.03125 45.226562 17.851562 45.226562 C 17.671875 45.226562 17.527344 45.082031 17.527344 44.902344 C 17.527344 44.722656 17.671875 44.578125 17.851562 44.578125 Z M 29.746094 37.683594 L 29.746094 28.953125 L 29.097656 29.601562 L 29.097656 38.332031 L 32.566406 38.332031 L 34.527344 40.289062 L 34.625 40.390625 L 37.839844 40.390625 L 39.910156 42.460938 L 42.058594 42.460938 C 42.179688 42.773438 42.492188 42.988281 42.851562 42.988281 C 43.320312 42.988281 43.703125 42.609375 43.703125 42.136719 C 43.703125 41.667969 43.320312 41.285156 42.851562 41.285156 C 42.492188 41.285156 42.191406 41.511719 42.058594 41.8125 L 40.175781 41.8125 L 38.09375 39.730469 L 34.882812 39.730469 L 32.9375 37.773438 L 32.835938 37.671875 L 29.746094 37.671875 Z M 42.503906 42.113281 C 42.503906 41.9375 42.652344 41.789062 42.828125 41.789062 C 43.007812 41.789062 43.152344 41.9375 43.152344 42.113281 C 43.152344 42.292969 43.007812 42.441406 42.828125 42.441406 C 42.652344 42.449219 42.503906 42.304688 42.503906 42.113281 Z M 42.683594 23.402344 L 46.242188 23.402344 L 46.242188 24.050781 L 38.273438 24.050781 L 36.304688 26.023438 L 36.203125 26.121094 L 31.648438 26.121094 L 31.347656 26.425781 L 29.746094 28.023438 L 29.097656 28.675781 L 28.257812 29.515625 L 28.257812 33.980469 L 27.609375 33.328125 L 27.609375 29.257812 L 27.789062 29.078125 L 28.257812 28.605469 L 28.628906 28.238281 L 29.199219 27.667969 L 30.238281 26.625 L 31.292969 25.574219 L 31.390625 25.472656 L 35.945312 25.472656 L 37.917969 23.503906 L 38.015625 23.402344 Z M 42.078125 21.074219 L 37.503906 21.074219 L 37.503906 21.726562 L 42.359375 21.726562 L 44.363281 19.722656 L 45.929688 19.722656 L 45.929688 19.074219 L 44.09375 19.074219 L 43.992188 19.171875 Z M 41.183594 18.984375 L 36.707031 18.984375 L 36.472656 19.082031 L 34.78125 20.773438 L 30.25 20.773438 L 27.933594 23.089844 L 27.921875 23.089844 L 27.921875 23.101562 L 27.6875 23.335938 L 27.585938 23.570312 L 27.585938 28.351562 L 27.765625 28.171875 L 28.234375 27.699219 L 28.234375 23.761719 L 35.554688 23.761719 L 35.554688 23.113281 L 28.839844 23.113281 L 30.496094 21.457031 L 34.894531 21.457031 L 35.128906 21.355469 L 36.820312 19.664062 L 41.429688 19.664062 L 41.53125 19.566406 L 44.820312 16.273438 L 44.363281 15.816406 Z M 39.652344 15.894531 L 39.652344 16.542969 L 36.886719 16.542969 L 34.726562 18.703125 L 34.269531 18.246094 L 36.527344 15.984375 L 36.765625 15.882812 L 39.652344 15.882812 Z M 40.746094 11.117188 L 37.75 14.105469 L 38.207031 14.5625 L 41.207031 11.574219 Z M 38.429688 9.132812 L 38.890625 9.59375 L 34.359375 14.125 L 34.359375 16.609375 L 31.582031 19.386719 L 31.125 18.925781 L 33.707031 16.34375 L 33.707031 13.855469 L 33.808594 13.757812 L 35.464844 12.101562 Z M 31.558594 9.222656 L 31.558594 13.007812 L 32.210938 13.007812 L 32.210938 9.359375 L 34.449219 7.121094 L 33.988281 6.660156 L 31.648438 9 L 31.550781 9.101562 L 31.550781 9.222656 Z M 26.492188 5.273438 L 26.492188 13.644531 L 27.140625 13.644531 L 27.140625 5.273438 Z M 23.648438 15.671875 L 23.546875 15.570312 L 23.546875 13.109375 L 20.949219 10.5 L 17.773438 7.320312 L 18.230469 6.863281 L 21.410156 10.050781 L 23.546875 12.191406 L 23.546875 7.714844 L 21.65625 5.820312 L 22.113281 5.363281 L 24.105469 7.355469 L 24.207031 7.589844 L 24.207031 15.324219 L 26.769531 17.886719 L 26.769531 20.078125 L 29.46875 17.382812 L 29.46875 5.566406 L 30.117188 5.566406 L 30.117188 17.628906 L 30.015625 17.730469 L 26.757812 20.976562 L 26.757812 33.410156 L 27.597656 34.246094 L 28.246094 34.898438 L 28.246094 39.597656 L 30.316406 39.597656 L 30.417969 39.699219 L 34.132812 43.601562 L 36.382812 43.601562 C 36.507812 43.289062 36.820312 43.078125 37.179688 43.078125 C 37.648438 43.078125 38.027344 43.457031 38.027344 43.929688 C 38.027344 44.398438 37.648438 44.777344 37.179688 44.777344 C 36.820312 44.777344 36.519531 44.554688 36.382812 44.253906 L 33.855469 44.253906 L 33.753906 44.152344 L 30.039062 40.246094 L 27.585938 40.246094 L 27.585938 35.164062 L 26.097656 33.675781 L 26.097656 18.132812 Z M 37.1875 43.613281 C 37.011719 43.613281 36.863281 43.761719 36.863281 43.9375 C 36.863281 44.117188 37.011719 44.265625 37.1875 44.265625 C 37.367188 44.265625 37.515625 44.117188 37.515625 43.9375 C 37.515625 43.769531 37.367188 43.613281 37.1875 43.613281 Z M 21.386719 16.933594 L 12.5 16.933594 L 9.523438 13.957031 L 9.066406 14.417969 L 12.234375 17.585938 L 21.386719 17.585938 Z M 16.304688 15.042969 L 22.003906 15.042969 L 22.003906 14.394531 L 16.441406 14.394531 L 15.613281 13.566406 L 15.613281 8.40625 L 14.964844 8.40625 L 14.964844 8.898438 C 14.964844 8.921875 14.964844 8.933594 14.964844 8.957031 L 14.964844 12.90625 L 12.546875 10.511719 L 12.085938 10.96875 L 16.171875 15.054688 L 16.304688 15.054688 Z M 22.921875 25.5625 L 19.933594 22.574219 L 10.835938 22.574219 L 10.734375 22.472656 L 7.308594 19.0625 L 7.769531 18.601562 L 11.089844 21.925781 L 13.363281 21.925781 L 15.972656 19.320312 L 16.207031 19.21875 L 21.0625 19.21875 L 25.167969 23.324219 L 25.269531 23.558594 L 25.269531 31.125 L 23.78125 32.613281 L 23.78125 38.332031 L 19.730469 38.332031 L 17.125 40.941406 L 17.023438 41.039062 L 10.609375 41.039062 C 10.488281 41.355469 10.171875 41.566406 9.816406 41.566406 C 9.34375 41.566406 8.964844 41.1875 8.964844 40.714844 C 8.964844 40.246094 9.34375 39.867188 9.816406 39.867188 C 10.171875 39.867188 10.476562 40.089844 10.609375 40.390625 L 16.742188 40.390625 L 19.351562 37.785156 L 19.453125 37.683594 L 23.121094 37.683594 L 23.121094 32.34375 L 24.621094 30.84375 L 24.621094 23.683594 L 20.804688 19.867188 L 16.351562 19.867188 L 14.304688 21.914062 L 20.199219 21.914062 L 23.390625 25.105469 Z M 9.816406 40.390625 C 9.636719 40.390625 9.492188 40.535156 9.492188 40.714844 C 9.492188 40.894531 9.636719 41.039062 9.816406 41.039062 C 9.996094 41.039062 10.140625 40.894531 10.140625 40.714844 C 10.140625 40.535156 9.996094 40.390625 9.816406 40.390625 Z M 23.121094 28.214844 L 23.121094 31.417969 L 23.769531 30.765625 L 23.769531 27.566406 L 20.257812 27.566406 L 19.09375 25.5625 L 19.003906 25.394531 L 12.746094 25.394531 L 11.113281 24.457031 L 10.945312 24.410156 L 6.839844 24.410156 L 6.839844 25.058594 L 10.867188 25.058594 L 12.5 26 L 12.667969 26.042969 L 18.632812 26.042969 L 19.796875 28.046875 L 19.886719 28.214844 Z M 34.570312 49.726562 L 37.300781 51.304688 C 37.300781 51.335938 37.289062 51.382812 37.289062 51.414062 C 37.289062 51.886719 37.671875 52.265625 38.140625 52.265625 C 38.609375 52.265625 38.992188 51.886719 38.992188 51.414062 C 38.992188 50.945312 38.609375 50.5625 38.140625 50.5625 C 37.9375 50.5625 37.761719 50.632812 37.613281 50.742188 L 34.882812 49.164062 Z M 37.816406 51.414062 C 37.816406 51.234375 37.960938 51.089844 38.140625 51.089844 C 38.320312 51.089844 38.464844 51.234375 38.464844 51.414062 C 38.464844 51.59375 38.320312 51.738281 38.140625 51.738281 C 37.960938 51.738281 37.816406 51.59375 37.816406 51.414062 Z M 24.554688 55.523438 L 24.824219 53.484375 L 24.175781 53.394531 L 23.90625 55.433594 C 23.535156 55.535156 23.265625 55.859375 23.265625 56.261719 C 23.265625 56.730469 23.648438 57.109375 24.117188 57.109375 C 24.589844 57.109375 24.96875 56.730469 24.96875 56.261719 C 24.992188 55.949219 24.8125 55.667969 24.554688 55.523438 Z M 24.128906 55.9375 C 24.308594 55.9375 24.453125 56.082031 24.453125 56.261719 C 24.453125 56.441406 24.308594 56.585938 24.128906 56.585938 C 23.949219 56.585938 23.804688 56.441406 23.804688 56.261719 C 23.804688 56.082031 23.949219 55.9375 24.128906 55.9375 Z M 28.058594 51.515625 L 27.40625 51.515625 L 27.40625 54.457031 L 27.574219 54.546875 L 29.476562 55.644531 C 29.476562 55.679688 29.46875 55.722656 29.46875 55.757812 C 29.46875 56.226562 29.847656 56.609375 30.316406 56.609375 C 30.789062 56.609375 31.167969 56.226562 31.167969 55.757812 C 31.167969 55.285156 30.789062 54.90625 30.316406 54.90625 C 30.117188 54.90625 29.9375 54.972656 29.792969 55.085938 L 28.046875 54.078125 L 28.046875 51.515625 Z M 30.328125 55.433594 C 30.507812 55.433594 30.652344 55.578125 30.652344 55.757812 C 30.652344 55.9375 30.507812 56.082031 30.328125 56.082031 C 30.148438 56.082031 30.003906 55.9375 30.003906 55.757812 C 30.003906 55.578125 30.148438 55.433594 30.328125 55.433594 Z M 27.742188 41.824219 L 28.394531 41.824219 L 28.394531 45.929688 L 30.886719 47.375 L 31.054688 47.464844 L 31.054688 50.945312 L 34.570312 52.96875 C 34.714844 52.859375 34.894531 52.792969 35.097656 52.792969 C 35.566406 52.792969 35.945312 53.171875 35.945312 53.640625 C 35.945312 54.113281 35.566406 54.492188 35.097656 54.492188 C 34.625 54.492188 34.246094 54.113281 34.246094 53.640625 C 34.246094 53.609375 34.246094 53.5625 34.257812 53.53125 L 30.574219 51.402344 L 30.40625 51.3125 L 30.40625 47.832031 L 27.910156 46.390625 L 27.742188 46.300781 Z M 35.109375 53.316406 C 34.929688 53.316406 34.78125 53.460938 34.78125 53.640625 C 34.78125 53.820312 34.929688 53.964844 35.109375 53.964844 C 35.285156 53.964844 35.433594 53.820312 35.433594 53.640625 C 35.433594 53.460938 35.285156 53.316406 35.109375 53.316406 Z M 22.753906 51.089844 L 22.921875 51.046875 L 25.148438 51.046875 L 25.148438 47.824219 C 24.835938 47.699219 24.621094 47.386719 24.621094 47.027344 C 24.621094 46.558594 25.003906 46.175781 25.472656 46.175781 C 25.941406 46.175781 26.324219 46.558594 26.324219 47.027344 C 26.324219 47.386719 26.097656 47.6875 25.796875 47.824219 L 25.796875 51.695312 L 23 51.695312 L 18.789062 54.125 C 18.789062 54.15625 18.800781 54.203125 18.800781 54.234375 C 18.800781 54.703125 18.421875 55.085938 17.953125 55.085938 C 17.480469 55.085938 17.101562 54.703125 17.101562 54.234375 C 17.101562 53.765625 17.480469 53.382812 17.953125 53.382812 C 18.152344 53.382812 18.332031 53.453125 18.476562 53.5625 Z M 25.472656 47.351562 C 25.652344 47.351562 25.796875 47.207031 25.796875 47.027344 C 25.796875 46.847656 25.652344 46.703125 25.472656 46.703125 C 25.292969 46.703125 25.148438 46.847656 25.148438 47.027344 C 25.148438 47.207031 25.292969 47.351562 25.472656 47.351562 Z M 17.941406 53.910156 C 17.761719 53.910156 17.617188 54.054688 17.617188 54.234375 C 17.617188 54.414062 17.761719 54.558594 17.941406 54.558594 C 18.121094 54.558594 18.265625 54.414062 18.265625 54.234375 C 18.265625 54.054688 18.121094 53.910156 17.941406 53.910156 Z M 17.851562 49.457031 L 15.476562 49.457031 L 15.242188 49.558594 L 14.480469 50.316406 C 14.382812 50.273438 14.269531 50.25 14.15625 50.25 C 13.6875 50.25 13.308594 50.632812 13.308594 51.101562 C 13.308594 51.570312 13.6875 51.953125 14.15625 51.953125 C 14.628906 51.953125 15.007812 51.570312 15.007812 51.101562 C 15.007812 50.988281 14.984375 50.878906 14.941406 50.777344 L 15.601562 50.117188 L 18.109375 50.117188 L 18.210938 50.015625 L 21.296875 46.925781 L 20.839844 46.46875 Z M 14.167969 50.765625 C 14.347656 50.765625 14.492188 50.910156 14.492188 51.089844 C 14.492188 51.269531 14.347656 51.414062 14.167969 51.414062 C 13.988281 51.414062 13.84375 51.269531 13.84375 51.089844 C 13.84375 50.910156 13.988281 50.765625 14.167969 50.765625 Z M 14.863281 44.285156 L 15.320312 44.746094 L 12.589844 47.476562 C 12.636719 47.578125 12.65625 47.6875 12.65625 47.800781 C 12.65625 48.269531 12.277344 48.652344 11.808594 48.652344 C 11.335938 48.652344 10.957031 48.269531 10.957031 47.800781 C 10.957031 47.332031 11.335938 46.949219 11.808594 46.949219 C 11.917969 46.949219 12.03125 46.972656 12.132812 47.015625 Z M 11.808594 47.476562 C 11.628906 47.476562 11.484375 47.621094 11.484375 47.800781 C 11.484375 47.980469 11.628906 48.125 11.808594 48.125 C 11.988281 48.125 12.132812 47.980469 12.132812 47.800781 C 12.132812 47.621094 11.988281 47.476562 11.808594 47.476562 Z M 26.757812 42.933594 L 26.757812 43.121094 L 26.589844 43.210938 L 24.015625 44.699219 L 23.847656 44.746094 L 22.820312 44.746094 C 22.695312 45.058594 22.382812 45.269531 22.023438 45.269531 C 21.554688 45.269531 21.175781 44.890625 21.175781 44.421875 C 21.175781 43.949219 21.554688 43.570312 22.023438 43.570312 C 22.382812 43.570312 22.683594 43.792969 22.820312 44.097656 L 23.761719 44.097656 L 26.085938 42.753906 L 26.085938 34.617188 L 26.738281 35.265625 L 26.738281 42.933594 Z M 22.046875 44.085938 C 22.226562 44.085938 22.371094 44.230469 22.371094 44.410156 C 22.371094 44.589844 22.226562 44.734375 22.046875 44.734375 C 21.867188 44.734375 21.722656 44.589844 21.722656 44.410156 C 21.722656 44.230469 21.867188 44.085938 22.046875 44.085938 Z M 40.546875 47.675781 C 40.546875 47.496094 40.691406 47.351562 40.871094 47.351562 C 41.050781 47.351562 41.195312 47.496094 41.195312 47.675781 C 41.195312 47.855469 41.050781 48 40.871094 48 C 40.691406 48 40.546875 47.855469 40.546875 47.675781 Z M 40.546875 47.675781 "/></g><g clip-rule="nonzero" clip-path="url(#a7b9128c11)"><path style=" stroke:none;fill-rule:evenodd;fill:#ffffff;fill-opacity:1;" d="M 26.703125 4.511719 C 25.808594 3.515625 25.851562 2.117188 26.847656 1.167969 C 27.832031 2.117188 27.890625 3.515625 26.992188 4.511719 Z M 42.046875 11.394531 C 42.773438 10.277344 44.140625 9.953125 45.3125 10.667969 C 44.652344 11.875 43.3125 12.28125 42.113281 11.675781 Z M 36.160156 9.972656 C 35.554688 8.777344 35.957031 7.445312 37.167969 6.773438 C 37.871094 7.949219 37.558594 9.3125 36.4375 10.042969 Z M 33.453125 5.015625 C 32.554688 4.019531 32.601562 2.621094 33.597656 1.671875 C 34.582031 2.621094 34.636719 4.019531 33.742188 5.015625 Z M 12.054688 9.953125 C 10.722656 9.882812 9.757812 8.855469 9.78125 7.476562 C 11.160156 7.457031 12.175781 8.40625 12.253906 9.75 Z M 20.859375 27.140625 C 19.742188 26.414062 19.417969 25.046875 20.132812 23.875 C 21.332031 24.535156 21.746094 25.875 21.140625 27.074219 Z M 15.566406 23.527344 C 14.839844 24.644531 13.476562 24.96875 12.300781 24.253906 C 12.960938 23.054688 14.304688 22.640625 15.5 23.246094 Z M 19.328125 23.605469 C 18.601562 24.722656 17.234375 25.046875 16.058594 24.332031 C 16.71875 23.125 18.0625 22.722656 19.261719 23.324219 Z M 5.976562 24.242188 C 5.910156 22.910156 4.878906 21.949219 3.503906 21.972656 C 3.480469 23.347656 4.433594 24.367188 5.777344 24.445312 Z M 47.09375 23.101562 C 48.402344 23.382812 49.589844 22.640625 49.925781 21.300781 C 48.605469 20.917969 47.375 21.578125 46.960938 22.855469 Z M 36.808594 17.640625 C 37.804688 16.746094 39.203125 16.789062 40.15625 17.785156 C 39.203125 18.769531 37.804688 18.828125 36.808594 17.929688 Z M 18.320312 27.554688 C 17.59375 28.675781 16.226562 29 15.054688 28.28125 C 15.714844 27.074219 17.054688 26.671875 18.253906 27.277344 L 18.476562 27.363281 Z M 10.507812 25.964844 C 10.441406 27.296875 9.414062 28.261719 8.035156 28.238281 C 8.015625 26.863281 8.964844 25.84375 10.308594 25.765625 Z M 5.976562 25.394531 C 5.898438 26.726562 4.878906 27.691406 3.503906 27.667969 C 3.480469 26.289062 4.433594 25.273438 5.777344 25.195312 Z M 9.480469 21.902344 C 9.066406 23.179688 7.824219 23.839844 6.515625 23.460938 C 6.839844 22.128906 8.035156 21.390625 9.34375 21.65625 Z M 6.59375 19.183594 C 5.285156 19.464844 4.097656 18.726562 3.761719 17.382812 C 5.082031 17.003906 6.3125 17.664062 6.726562 18.9375 Z M 14.136719 19.855469 C 13.140625 20.75 11.742188 20.707031 10.789062 19.710938 C 11.742188 18.726562 13.140625 18.667969 14.136719 19.566406 Z M 10.027344 15.984375 C 9.613281 17.257812 8.371094 17.917969 7.0625 17.539062 C 7.386719 16.207031 8.585938 15.46875 9.894531 15.738281 Z M 8.015625 14.351562 C 6.671875 14.269531 5.71875 13.253906 5.742188 11.875 C 7.117188 11.855469 8.136719 12.804688 8.214844 14.148438 Z M 16.160156 12.480469 C 15.882812 11.171875 16.621094 9.984375 17.960938 9.648438 C 18.34375 10.96875 17.683594 12.199219 16.40625 12.613281 Z M 14.605469 14.652344 C 13.609375 15.546875 12.210938 15.503906 11.257812 14.507812 C 12.210938 13.523438 13.609375 13.464844 14.605469 14.359375 Z M 11.59375 11.09375 L 11.59375 10.8125 C 10.597656 9.917969 9.199219 9.960938 8.25 10.957031 C 9.199219 11.945312 10.597656 11.988281 11.59375 11.09375 Z M 14.425781 8.921875 L 14.628906 8.71875 C 14.550781 7.390625 13.53125 6.425781 12.15625 6.460938 C 12.132812 7.835938 13.082031 8.855469 14.425781 8.921875 Z M 17.707031 6.527344 C 16.375 6.460938 15.410156 5.429688 15.433594 4.054688 C 16.808594 4.03125 17.828125 4.984375 17.90625 6.324219 Z M 21.621094 4.914062 C 20.289062 4.847656 19.328125 3.820312 19.351562 2.441406 C 20.726562 2.421875 21.746094 3.371094 21.824219 4.714844 Z M 23.9375 6 C 23.042969 5.003906 23.089844 3.605469 24.085938 2.65625 C 25.070312 3.605469 25.125 5.003906 24.230469 6 Z M 22.382812 9.15625 C 21.050781 9.089844 20.089844 8.058594 20.113281 6.683594 C 21.488281 6.660156 22.507812 7.613281 22.585938 8.957031 Z M 24.753906 19.765625 C 23.425781 19.699219 22.460938 18.667969 22.484375 17.292969 C 23.859375 17.269531 24.878906 18.222656 24.957031 19.566406 Z M 21.195312 13.980469 C 19.867188 13.914062 18.902344 12.882812 18.925781 11.507812 C 20.300781 11.484375 21.320312 12.4375 21.398438 13.777344 Z M 27.789062 17.730469 C 26.894531 16.734375 26.9375 15.335938 27.933594 14.382812 C 28.917969 15.335938 28.976562 16.734375 28.078125 17.730469 Z M 32.109375 26.984375 C 33.441406 27.050781 34.402344 28.082031 34.378906 29.457031 C 33.003906 29.480469 31.984375 28.527344 31.90625 27.1875 Z M 36.261719 26.605469 C 37.59375 26.671875 38.554688 27.699219 38.53125 29.078125 C 37.15625 29.101562 36.136719 28.148438 36.058594 26.804688 Z M 43.546875 24.734375 C 44.878906 24.800781 45.839844 25.832031 45.816406 27.207031 C 44.441406 27.230469 43.421875 26.28125 43.34375 24.9375 Z M 38.6875 24.78125 L 38.488281 24.980469 C 38.554688 26.3125 39.585938 27.277344 40.960938 27.253906 C 40.984375 25.875 40.03125 24.847656 38.6875 24.78125 Z M 47.09375 24.050781 C 48.402344 23.773438 49.589844 24.511719 49.925781 25.855469 C 48.605469 26.234375 47.375 25.574219 46.960938 24.296875 Z M 43.558594 21.277344 C 44.554688 20.382812 45.953125 20.425781 46.902344 21.421875 C 45.953125 22.40625 44.554688 22.464844 43.558594 21.566406 Z M 46.097656 18.589844 C 46.164062 17.257812 47.195312 16.296875 48.570312 16.320312 C 48.59375 17.695312 47.640625 18.714844 46.296875 18.792969 Z M 44.808594 15.558594 C 44.878906 14.226562 45.90625 13.265625 47.285156 13.285156 C 47.304688 14.664062 46.355469 15.679688 45.011719 15.761719 Z M 38.464844 8.699219 L 38.734375 8.777344 C 39.851562 8.050781 40.175781 6.683594 39.460938 5.507812 C 38.261719 6.167969 37.859375 7.511719 38.464844 8.699219 Z M 41.339844 10.824219 L 41.609375 10.902344 C 42.730469 10.175781 43.054688 8.808594 42.335938 7.636719 C 41.140625 8.285156 40.738281 9.628906 41.339844 10.824219 Z M 42.582031 16.578125 C 41.6875 15.582031 41.734375 14.183594 42.730469 13.230469 C 43.714844 14.183594 43.769531 15.582031 42.875 16.578125 Z M 34.90625 15.445312 C 34.972656 14.113281 36.003906 13.152344 37.378906 13.175781 C 37.402344 14.550781 36.449219 15.570312 35.109375 15.648438 Z M 31.695312 17.539062 C 30.800781 16.542969 30.84375 15.144531 31.839844 14.191406 C 32.824219 15.144531 32.878906 16.542969 31.984375 17.539062 Z M 32.769531 12.199219 C 32.835938 10.871094 33.867188 9.90625 35.242188 9.929688 C 35.265625 11.304688 34.3125 12.324219 32.96875 12.402344 Z M 34.449219 6.257812 L 34.648438 6.460938 C 35.980469 6.394531 36.941406 5.363281 36.921875 3.988281 C 35.542969 3.964844 34.527344 4.914062 34.449219 6.257812 Z M 31.917969 7.488281 L 32.199219 7.488281 C 33.09375 6.492188 33.046875 5.09375 32.050781 4.144531 C 31.066406 5.082031 31.023438 6.492188 31.917969 7.488281 Z M 29.679688 4.570312 C 28.785156 3.574219 28.828125 2.171875 29.824219 1.222656 C 30.808594 2.171875 30.867188 3.574219 29.972656 4.570312 Z M 29.679688 4.570312 "/></g><g style="fill:#ffffff;fill-opacity:1;"><g transform="translate(53.035532, 20.190157)"><path style="stroke:none" d="M 0.34375 0 L 4.09375 -10.265625 L 6.203125 -10.265625 L 9.953125 0 L 7.953125 0 L 7.140625 -2.375 L 3.140625 -2.375 L 2.296875 0 Z M 3.65625 -3.84375 L 6.625 -3.84375 L 5.125 -8.109375 Z M 3.65625 -3.84375 "/></g></g><g style="fill:#ffffff;fill-opacity:1;"><g transform="translate(65.00158, 20.190157)"><path style="stroke:none" d="M 5.484375 0.171875 C 4.515625 0.171875 3.664062 -0.046875 2.9375 -0.484375 C 2.21875 -0.921875 1.65625 -1.53125 1.25 -2.3125 C 0.851562 -3.101562 0.65625 -4.023438 0.65625 -5.078125 C 0.65625 -6.128906 0.863281 -7.054688 1.28125 -7.859375 C 1.695312 -8.671875 2.285156 -9.300781 3.046875 -9.75 C 3.816406 -10.207031 4.734375 -10.4375 5.796875 -10.4375 C 6.992188 -10.4375 7.988281 -10.144531 8.78125 -9.5625 C 9.570312 -8.988281 10.082031 -8.195312 10.3125 -7.1875 L 8.21875 -7.1875 C 8.0625 -7.664062 7.773438 -8.035156 7.359375 -8.296875 C 6.953125 -8.566406 6.429688 -8.703125 5.796875 -8.703125 C 4.765625 -8.703125 3.96875 -8.375 3.40625 -7.71875 C 2.851562 -7.070312 2.578125 -6.1875 2.578125 -5.0625 C 2.578125 -3.925781 2.851562 -3.046875 3.40625 -2.421875 C 3.957031 -1.804688 4.707031 -1.5 5.65625 -1.5 C 6.582031 -1.5 7.28125 -1.75 7.75 -2.25 C 8.226562 -2.75 8.519531 -3.410156 8.625 -4.234375 L 6.03125 -4.234375 L 6.03125 -5.640625 L 10.515625 -5.640625 L 10.515625 0 L 8.78125 0 L 8.625 -1.34375 C 8.300781 -0.851562 7.890625 -0.476562 7.390625 -0.21875 C 6.890625 0.0390625 6.253906 0.171875 5.484375 0.171875 Z M 5.484375 0.171875 "/></g></g><g style="fill:#ffffff;fill-opacity:1;"><g transform="translate(78.02206, 20.190157)"><path style="stroke:none" d="M 1 0 L 1 -10.265625 L 4.765625 -10.265625 C 5.585938 -10.265625 6.265625 -10.125 6.796875 -9.84375 C 7.328125 -9.5625 7.722656 -9.179688 7.984375 -8.703125 C 8.253906 -8.234375 8.390625 -7.710938 8.390625 -7.140625 C 8.390625 -6.515625 8.222656 -5.941406 7.890625 -5.421875 C 7.566406 -4.898438 7.054688 -4.523438 6.359375 -4.296875 L 8.484375 0 L 6.328125 0 L 4.421875 -4.046875 L 2.875 -4.046875 L 2.875 0 Z M 2.875 -5.421875 L 4.640625 -5.421875 C 5.265625 -5.421875 5.722656 -5.570312 6.015625 -5.875 C 6.316406 -6.175781 6.46875 -6.578125 6.46875 -7.078125 C 6.46875 -7.566406 6.320312 -7.957031 6.03125 -8.25 C 5.738281 -8.539062 5.269531 -8.6875 4.625 -8.6875 L 2.875 -8.6875 Z M 2.875 -5.421875 "/></g></g><g style="fill:#ffffff;fill-opacity:1;"><g transform="translate(88.845822, 20.190157)"><path style="stroke:none" d="M 5.796875 0.171875 C 4.773438 0.171875 3.878906 -0.0507812 3.109375 -0.5 C 2.347656 -0.945312 1.75 -1.566406 1.3125 -2.359375 C 0.875 -3.160156 0.65625 -4.082031 0.65625 -5.125 C 0.65625 -6.175781 0.875 -7.097656 1.3125 -7.890625 C 1.75 -8.691406 2.347656 -9.316406 3.109375 -9.765625 C 3.878906 -10.210938 4.773438 -10.4375 5.796875 -10.4375 C 6.816406 -10.4375 7.710938 -10.210938 8.484375 -9.765625 C 9.253906 -9.316406 9.851562 -8.691406 10.28125 -7.890625 C 10.71875 -7.097656 10.9375 -6.175781 10.9375 -5.125 C 10.9375 -4.082031 10.71875 -3.160156 10.28125 -2.359375 C 9.851562 -1.566406 9.253906 -0.945312 8.484375 -0.5 C 7.710938 -0.0507812 6.816406 0.171875 5.796875 0.171875 Z M 5.796875 -1.515625 C 6.773438 -1.515625 7.554688 -1.832031 8.140625 -2.46875 C 8.722656 -3.113281 9.015625 -4 9.015625 -5.125 C 9.015625 -6.25 8.722656 -7.132812 8.140625 -7.78125 C 7.554688 -8.425781 6.773438 -8.75 5.796875 -8.75 C 4.828125 -8.75 4.046875 -8.425781 3.453125 -7.78125 C 2.867188 -7.132812 2.578125 -6.25 2.578125 -5.125 C 2.578125 -4 2.867188 -3.113281 3.453125 -2.46875 C 4.046875 -1.832031 4.828125 -1.515625 5.796875 -1.515625 Z M 5.796875 -1.515625 "/></g></g><g style="fill:#ffffff;fill-opacity:1;"><g transform="translate(102.129904, 20.190157)"><path style="stroke:none" d=""/></g></g><g style="fill:#ffffff;fill-opacity:1;"><g transform="translate(107.315448, 20.190157)"><path style="stroke:none" d="M 1 0 L 1 -10.265625 L 3.21875 -10.265625 L 6.5 -3.75 L 9.71875 -10.265625 L 11.9375 -10.265625 L 11.9375 0 L 10.0625 0 L 10.0625 -7.078125 L 7.203125 -1.46875 L 5.734375 -1.46875 L 2.875 -7.078125 L 2.875 0 Z M 1 0 "/></g></g><g style="fill:#ffffff;fill-opacity:1;"><g transform="translate(121.94684, 20.190157)"><path style="stroke:none" d="M 0.34375 0 L 4.09375 -10.265625 L 6.203125 -10.265625 L 9.953125 0 L 7.953125 0 L 7.140625 -2.375 L 3.140625 -2.375 L 2.296875 0 Z M 3.65625 -3.84375 L 6.625 -3.84375 L 5.125 -8.109375 Z M 3.65625 -3.84375 "/></g></g><g style="fill:#ffffff;fill-opacity:1;"><g transform="translate(133.912889, 20.190157)"><path style="stroke:none" d="M 3.390625 0 L 3.390625 -8.75 L 0.390625 -8.75 L 0.390625 -10.265625 L 8.265625 -10.265625 L 8.265625 -8.75 L 5.265625 -8.75 L 5.265625 0 Z M 3.390625 0 "/></g></g><g style="fill:#ffffff;fill-opacity:1;"><g transform="translate(144.268025, 20.190157)"><path style="stroke:none" d="M 1 0 L 1 -10.265625 L 7.6875 -10.265625 L 7.6875 -8.75 L 2.875 -8.75 L 2.875 -5.9375 L 7.25 -5.9375 L 7.25 -4.46875 L 2.875 -4.46875 L 2.875 -1.515625 L 7.6875 -1.515625 L 7.6875 0 Z M 1 0 "/></g></g><g style="fill:#ffffff;fill-opacity:1;"><g transform="translate(57.283967, 30.421936)"><path style="stroke:none" d="M 0.203125 0 L 2.484375 -6.21875 L 3.765625 -6.21875 L 6.03125 0 L 4.828125 0 L 4.328125 -1.4375 L 1.90625 -1.4375 L 1.390625 0 Z M 2.21875 -2.328125 L 4.015625 -2.328125 L 3.109375 -4.921875 Z M 2.21875 -2.328125 "/></g></g><g style="fill:#ffffff;fill-opacity:1;"><g transform="translate(66.572425, 30.421936)"><path style="stroke:none" d="M 3.328125 0.109375 C 2.734375 0.109375 2.21875 -0.0195312 1.78125 -0.28125 C 1.34375 -0.550781 1.003906 -0.925781 0.765625 -1.40625 C 0.523438 -1.882812 0.40625 -2.441406 0.40625 -3.078125 C 0.40625 -3.710938 0.53125 -4.273438 0.78125 -4.765625 C 1.03125 -5.253906 1.382812 -5.632812 1.84375 -5.90625 C 2.3125 -6.1875 2.867188 -6.328125 3.515625 -6.328125 C 4.242188 -6.328125 4.847656 -6.148438 5.328125 -5.796875 C 5.804688 -5.453125 6.117188 -4.972656 6.265625 -4.359375 L 4.984375 -4.359375 C 4.890625 -4.648438 4.71875 -4.875 4.46875 -5.03125 C 4.21875 -5.195312 3.898438 -5.28125 3.515625 -5.28125 C 2.890625 -5.28125 2.40625 -5.082031 2.0625 -4.6875 C 1.726562 -4.289062 1.5625 -3.75 1.5625 -3.0625 C 1.5625 -2.375 1.726562 -1.84375 2.0625 -1.46875 C 2.394531 -1.09375 2.851562 -0.90625 3.4375 -0.90625 C 4 -0.90625 4.421875 -1.054688 4.703125 -1.359375 C 4.992188 -1.671875 5.171875 -2.070312 5.234375 -2.5625 L 3.65625 -2.5625 L 3.65625 -3.421875 L 6.375 -3.421875 L 6.375 0 L 5.328125 0 L 5.234375 -0.8125 C 5.035156 -0.519531 4.785156 -0.289062 4.484375 -0.125 C 4.179688 0.03125 3.796875 0.109375 3.328125 0.109375 Z M 3.328125 0.109375 "/></g></g><g style="fill:#ffffff;fill-opacity:1;"><g transform="translate(76.50085, 30.421936)"><path style="stroke:none" d="M 0.609375 0 L 0.609375 -6.21875 L 2.890625 -6.21875 C 3.390625 -6.21875 3.800781 -6.132812 4.125 -5.96875 C 4.445312 -5.800781 4.6875 -5.570312 4.84375 -5.28125 C 5 -5 5.078125 -4.679688 5.078125 -4.328125 C 5.078125 -3.953125 4.976562 -3.601562 4.78125 -3.28125 C 4.582031 -2.96875 4.273438 -2.742188 3.859375 -2.609375 L 5.140625 0 L 3.84375 0 L 2.6875 -2.453125 L 1.75 -2.453125 L 1.75 0 Z M 1.75 -3.296875 L 2.8125 -3.296875 C 3.195312 -3.296875 3.476562 -3.382812 3.65625 -3.5625 C 3.832031 -3.75 3.921875 -3.992188 3.921875 -4.296875 C 3.921875 -4.585938 3.832031 -4.820312 3.65625 -5 C 3.476562 -5.175781 3.195312 -5.265625 2.8125 -5.265625 L 1.75 -5.265625 Z M 1.75 -3.296875 "/></g></g><g style="fill:#ffffff;fill-opacity:1;"><g transform="translate(85.096006, 30.421936)"><path style="stroke:none" d="M 0.609375 0 L 0.609375 -6.21875 L 1.75 -6.21875 L 1.75 0 Z M 0.609375 0 "/></g></g><g style="fill:#ffffff;fill-opacity:1;"><g transform="translate(90.500191, 30.421936)"><path style="stroke:none" d="M 3.421875 0.109375 C 2.796875 0.109375 2.253906 -0.0234375 1.796875 -0.296875 C 1.347656 -0.566406 1.003906 -0.941406 0.765625 -1.421875 C 0.523438 -1.910156 0.40625 -2.472656 0.40625 -3.109375 C 0.40625 -3.734375 0.523438 -4.289062 0.765625 -4.78125 C 1.003906 -5.269531 1.347656 -5.648438 1.796875 -5.921875 C 2.253906 -6.191406 2.796875 -6.328125 3.421875 -6.328125 C 4.171875 -6.328125 4.78125 -6.140625 5.25 -5.765625 C 5.726562 -5.398438 6.03125 -4.882812 6.15625 -4.21875 L 4.90625 -4.21875 C 4.820312 -4.550781 4.65625 -4.8125 4.40625 -5 C 4.15625 -5.195312 3.820312 -5.296875 3.40625 -5.296875 C 2.832031 -5.296875 2.378906 -5.097656 2.046875 -4.703125 C 1.722656 -4.316406 1.5625 -3.785156 1.5625 -3.109375 C 1.5625 -2.421875 1.722656 -1.882812 2.046875 -1.5 C 2.378906 -1.113281 2.832031 -0.921875 3.40625 -0.921875 C 3.820312 -0.921875 4.15625 -1.007812 4.40625 -1.1875 C 4.65625 -1.363281 4.820312 -1.613281 4.90625 -1.9375 L 6.15625 -1.9375 C 6.03125 -1.300781 5.726562 -0.800781 5.25 -0.4375 C 4.78125 -0.0703125 4.171875 0.109375 3.421875 0.109375 Z M 3.421875 0.109375 "/></g></g><g style="fill:#ffffff;fill-opacity:1;"><g transform="translate(100.108627, 30.421936)"><path style="stroke:none" d="M 3 0.109375 C 2.550781 0.109375 2.140625 0.0195312 1.765625 -0.15625 C 1.398438 -0.34375 1.109375 -0.617188 0.890625 -0.984375 C 0.671875 -1.347656 0.5625 -1.8125 0.5625 -2.375 L 0.5625 -6.21875 L 1.703125 -6.21875 L 1.703125 -2.375 C 1.703125 -1.882812 1.816406 -1.519531 2.046875 -1.28125 C 2.285156 -1.050781 2.613281 -0.9375 3.03125 -0.9375 C 3.4375 -0.9375 3.757812 -1.050781 4 -1.28125 C 4.238281 -1.519531 4.359375 -1.882812 4.359375 -2.375 L 4.359375 -6.21875 L 5.5 -6.21875 L 5.5 -2.375 C 5.5 -1.8125 5.382812 -1.347656 5.15625 -0.984375 C 4.925781 -0.617188 4.625 -0.34375 4.25 -0.15625 C 3.875 0.0195312 3.457031 0.109375 3 0.109375 Z M 3 0.109375 "/></g></g><g style="fill:#ffffff;fill-opacity:1;"><g transform="translate(109.219312, 30.421936)"><path style="stroke:none" d="M 0.609375 0 L 0.609375 -6.21875 L 1.75 -6.21875 L 1.75 -0.890625 L 4.5 -0.890625 L 4.5 0 Z M 0.609375 0 "/></g></g><g style="fill:#ffffff;fill-opacity:1;"><g transform="translate(117.174491, 30.421936)"><path style="stroke:none" d="M 2.046875 0 L 2.046875 -5.3125 L 0.234375 -5.3125 L 0.234375 -6.21875 L 5.015625 -6.21875 L 5.015625 -5.3125 L 3.1875 -5.3125 L 3.1875 0 Z M 2.046875 0 "/></g></g><g style="fill:#ffffff;fill-opacity:1;"><g transform="translate(125.485215, 30.421936)"><path style="stroke:none" d="M 3 0.109375 C 2.550781 0.109375 2.140625 0.0195312 1.765625 -0.15625 C 1.398438 -0.34375 1.109375 -0.617188 0.890625 -0.984375 C 0.671875 -1.347656 0.5625 -1.8125 0.5625 -2.375 L 0.5625 -6.21875 L 1.703125 -6.21875 L 1.703125 -2.375 C 1.703125 -1.882812 1.816406 -1.519531 2.046875 -1.28125 C 2.285156 -1.050781 2.613281 -0.9375 3.03125 -0.9375 C 3.4375 -0.9375 3.757812 -1.050781 4 -1.28125 C 4.238281 -1.519531 4.359375 -1.882812 4.359375 -2.375 L 4.359375 -6.21875 L 5.5 -6.21875 L 5.5 -2.375 C 5.5 -1.8125 5.382812 -1.347656 5.15625 -0.984375 C 4.925781 -0.617188 4.625 -0.34375 4.25 -0.15625 C 3.875 0.0195312 3.457031 0.109375 3 0.109375 Z M 3 0.109375 "/></g></g><g style="fill:#ffffff;fill-opacity:1;"><g transform="translate(134.5959, 30.421936)"><path style="stroke:none" d="M 0.609375 0 L 0.609375 -6.21875 L 2.890625 -6.21875 C 3.390625 -6.21875 3.800781 -6.132812 4.125 -5.96875 C 4.445312 -5.800781 4.6875 -5.570312 4.84375 -5.28125 C 5 -5 5.078125 -4.679688 5.078125 -4.328125 C 5.078125 -3.953125 4.976562 -3.601562 4.78125 -3.28125 C 4.582031 -2.96875 4.273438 -2.742188 3.859375 -2.609375 L 5.140625 0 L 3.84375 0 L 2.6875 -2.453125 L 1.75 -2.453125 L 1.75 0 Z M 1.75 -3.296875 L 2.8125 -3.296875 C 3.195312 -3.296875 3.476562 -3.382812 3.65625 -3.5625 C 3.832031 -3.75 3.921875 -3.992188 3.921875 -4.296875 C 3.921875 -4.585938 3.832031 -4.820312 3.65625 -5 C 3.476562 -5.175781 3.195312 -5.265625 2.8125 -5.265625 L 1.75 -5.265625 Z M 1.75 -3.296875 "/></g></g><g style="fill:#ffffff;fill-opacity:1;"><g transform="translate(143.191056, 30.421936)"><path style="stroke:none" d="M 0.609375 0 L 0.609375 -6.21875 L 4.671875 -6.21875 L 4.671875 -5.3125 L 1.75 -5.3125 L 1.75 -3.59375 L 4.40625 -3.59375 L 4.40625 -2.71875 L 1.75 -2.71875 L 1.75 -0.921875 L 4.671875 -0.921875 L 4.671875 0 Z M 0.609375 0 "/></g></g></g></svg>