<svg xmlns="http://www.w3.org/2000/svg" xmlns:xlink="http://www.w3.org/1999/xlink" width="500" zoomAndPan="magnify" viewBox="0 0 375 374.999991" height="500" preserveAspectRatio="xMidYMid meet" version="1.0"><defs><clipPath id="78d852281a"><path d="M 6.792969 199 L 176 199 L 176 368.292969 L 6.792969 368.292969 Z M 6.792969 199 " clip-rule="nonzero"/></clipPath><clipPath id="5dc42345e0"><path d="M 199 199 L 368.292969 199 L 368.292969 368.292969 L 199 368.292969 Z M 199 199 " clip-rule="nonzero"/></clipPath><clipPath id="a6f9a1fd33"><path d="M 6.792969 6.792969 L 176 6.792969 L 176 176 L 6.792969 176 Z M 6.792969 6.792969 " clip-rule="nonzero"/></clipPath><clipPath id="0c08116e46"><path d="M 199 6.792969 L 368.292969 6.792969 L 368.292969 176 L 199 176 Z M 199 6.792969 " clip-rule="nonzero"/></clipPath></defs><g clip-path="url(#78d852281a)"><path fill="#000000" d="M 175.621094 221.664062 L 175.621094 308.042969 C 175.617188 310.015625 175.519531 311.984375 175.324219 313.945312 C 175.128906 315.910156 174.839844 317.859375 174.453125 319.792969 C 174.066406 321.726562 173.585938 323.640625 173.011719 325.527344 C 172.441406 327.414062 171.773438 329.269531 171.019531 331.089844 C 170.261719 332.914062 169.421875 334.695312 168.488281 336.433594 C 167.558594 338.171875 166.546875 339.863281 165.449219 341.503906 C 164.351562 343.144531 163.179688 344.726562 161.925781 346.25 C 160.675781 347.773438 159.351562 349.234375 157.957031 350.628906 C 156.5625 352.023438 155.101562 353.347656 153.578125 354.601562 C 152.050781 355.851562 150.46875 357.027344 148.828125 358.121094 C 147.191406 359.21875 145.5 360.230469 143.761719 361.164062 C 142.019531 362.09375 140.242188 362.9375 138.417969 363.691406 C 136.597656 364.449219 134.742188 365.113281 132.851562 365.6875 C 130.964844 366.261719 129.054688 366.738281 127.121094 367.125 C 125.1875 367.511719 123.238281 367.804688 121.273438 367.996094 C 119.3125 368.191406 117.34375 368.292969 115.371094 368.292969 L 67.042969 368.292969 C 65.070312 368.292969 63.101562 368.191406 61.140625 367.996094 C 59.175781 367.804688 57.226562 367.511719 55.292969 367.125 C 53.359375 366.738281 51.445312 366.261719 49.558594 365.6875 C 47.671875 365.113281 45.816406 364.449219 43.996094 363.691406 C 42.171875 362.9375 40.390625 362.09375 38.652344 361.164062 C 36.914062 360.230469 35.222656 359.21875 33.582031 358.121094 C 31.941406 357.027344 30.359375 355.851562 28.835938 354.601562 C 27.3125 353.347656 25.851562 352.023438 24.457031 350.628906 C 23.0625 349.234375 21.738281 347.773438 20.484375 346.25 C 19.234375 344.726562 18.058594 343.144531 16.964844 341.503906 C 15.867188 339.863281 14.855469 338.171875 13.921875 336.433594 C 12.992188 334.695312 12.148438 332.914062 11.394531 331.089844 C 10.636719 329.269531 9.972656 327.414062 9.398438 325.527344 C 8.824219 323.640625 8.347656 321.726562 7.960938 319.792969 C 7.574219 317.859375 7.28125 315.910156 7.089844 313.945312 C 6.894531 311.984375 6.792969 310.015625 6.792969 308.042969 L 6.792969 259.714844 C 6.792969 257.742188 6.894531 255.777344 7.089844 253.8125 C 7.28125 251.847656 7.574219 249.898438 7.960938 247.964844 C 8.347656 246.03125 8.824219 244.121094 9.398438 242.234375 C 9.972656 240.34375 10.636719 238.488281 11.394531 236.667969 C 12.148438 234.847656 12.992188 233.066406 13.921875 231.324219 C 14.855469 229.585938 15.867188 227.894531 16.964844 226.257812 C 18.058594 224.617188 19.234375 223.035156 20.484375 221.507812 C 21.738281 219.984375 23.0625 218.523438 24.457031 217.128906 C 25.851562 215.734375 27.3125 214.410156 28.835938 213.160156 C 30.359375 211.90625 31.941406 210.734375 33.582031 209.636719 C 35.222656 208.539062 36.914062 207.527344 38.652344 206.597656 C 40.390625 205.664062 42.171875 204.824219 43.996094 204.066406 C 45.816406 203.3125 47.671875 202.648438 49.558594 202.074219 C 51.445312 201.5 53.359375 201.019531 55.292969 200.632812 C 57.226562 200.246094 59.175781 199.957031 61.140625 199.761719 C 63.101562 199.566406 65.070312 199.46875 67.042969 199.464844 L 153.421875 199.464844 C 154.148438 199.46875 154.875 199.503906 155.597656 199.574219 C 156.320312 199.648438 157.039062 199.753906 157.75 199.898438 C 158.464844 200.039062 159.167969 200.214844 159.863281 200.425781 C 160.558594 200.640625 161.242188 200.882812 161.914062 201.164062 C 162.585938 201.441406 163.242188 201.75 163.882812 202.09375 C 164.523438 202.4375 165.144531 202.8125 165.75 203.214844 C 166.351562 203.617188 166.9375 204.050781 167.496094 204.511719 C 168.058594 204.972656 168.597656 205.460938 169.109375 205.976562 C 169.625 206.488281 170.113281 207.027344 170.574219 207.589844 C 171.035156 208.148438 171.46875 208.734375 171.871094 209.335938 C 172.273438 209.941406 172.648438 210.5625 172.992188 211.203125 C 173.335938 211.84375 173.644531 212.5 173.921875 213.171875 C 174.203125 213.84375 174.445312 214.527344 174.660156 215.222656 C 174.871094 215.917969 175.046875 216.621094 175.1875 217.335938 C 175.332031 218.046875 175.4375 218.765625 175.511719 219.488281 C 175.582031 220.210938 175.617188 220.9375 175.621094 221.664062 Z M 175.621094 221.664062 " fill-opacity="1" fill-rule="nonzero"/></g><g clip-path="url(#5dc42345e0)"><path fill="#000000" d="M 368.292969 259.714844 L 368.292969 308.042969 C 368.292969 310.015625 368.191406 311.984375 367.996094 313.945312 C 367.804688 315.910156 367.511719 317.859375 367.125 319.792969 C 366.738281 321.726562 366.261719 323.640625 365.6875 325.527344 C 365.113281 327.414062 364.449219 329.269531 363.691406 331.089844 C 362.9375 332.914062 362.09375 334.695312 361.164062 336.433594 C 360.230469 338.171875 359.21875 339.863281 358.121094 341.503906 C 357.027344 343.144531 355.851562 344.726562 354.601562 346.25 C 353.347656 347.773438 352.023438 349.234375 350.628906 350.628906 C 349.234375 352.023438 347.773438 353.347656 346.25 354.601562 C 344.726562 355.851562 343.144531 357.027344 341.503906 358.121094 C 339.863281 359.21875 338.171875 360.230469 336.433594 361.164062 C 334.695312 362.09375 332.914062 362.9375 331.089844 363.691406 C 329.269531 364.449219 327.414062 365.113281 325.527344 365.6875 C 323.640625 366.261719 321.726562 366.738281 319.792969 367.125 C 317.859375 367.511719 315.910156 367.804688 313.945312 367.996094 C 311.984375 368.191406 310.015625 368.292969 308.042969 368.292969 L 259.714844 368.292969 C 257.742188 368.292969 255.777344 368.191406 253.8125 367.996094 C 251.847656 367.804688 249.898438 367.511719 247.964844 367.125 C 246.03125 366.738281 244.121094 366.261719 242.234375 365.6875 C 240.34375 365.113281 238.488281 364.449219 236.667969 363.691406 C 234.847656 362.9375 233.066406 362.09375 231.324219 361.164062 C 229.585938 360.230469 227.894531 359.21875 226.257812 358.121094 C 224.617188 357.027344 223.035156 355.851562 221.507812 354.601562 C 219.984375 353.347656 218.523438 352.023438 217.128906 350.628906 C 215.734375 349.234375 214.410156 347.773438 213.160156 346.25 C 211.90625 344.726562 210.734375 343.144531 209.636719 341.503906 C 208.539062 339.863281 207.527344 338.171875 206.597656 336.433594 C 205.664062 334.695312 204.824219 332.914062 204.066406 331.089844 C 203.3125 329.269531 202.648438 327.414062 202.074219 325.527344 C 201.5 323.640625 201.019531 321.726562 200.632812 319.792969 C 200.246094 317.859375 199.957031 315.910156 199.761719 313.945312 C 199.566406 311.984375 199.46875 310.015625 199.464844 308.042969 L 199.464844 221.664062 C 199.46875 220.9375 199.503906 220.210938 199.574219 219.488281 C 199.648438 218.765625 199.753906 218.046875 199.898438 217.335938 C 200.039062 216.621094 200.214844 215.917969 200.425781 215.222656 C 200.640625 214.527344 200.882812 213.84375 201.164062 213.171875 C 201.441406 212.5 201.75 211.84375 202.09375 211.203125 C 202.4375 210.5625 202.8125 209.941406 203.214844 209.335938 C 203.617188 208.734375 204.050781 208.148438 204.511719 207.589844 C 204.972656 207.027344 205.460938 206.488281 205.976562 205.976562 C 206.488281 205.460938 207.027344 204.972656 207.589844 204.511719 C 208.148438 204.050781 208.734375 203.617188 209.335938 203.214844 C 209.941406 202.8125 210.5625 202.4375 211.203125 202.09375 C 211.84375 201.75 212.5 201.441406 213.171875 201.164062 C 213.84375 200.882812 214.527344 200.640625 215.222656 200.425781 C 215.917969 200.214844 216.621094 200.039062 217.335938 199.898438 C 218.046875 199.753906 218.765625 199.648438 219.488281 199.574219 C 220.210938 199.503906 220.9375 199.46875 221.664062 199.464844 L 308.042969 199.464844 C 310.015625 199.46875 311.984375 199.566406 313.945312 199.761719 C 315.910156 199.957031 317.859375 200.246094 319.792969 200.632812 C 321.726562 201.019531 323.640625 201.5 325.527344 202.074219 C 327.414062 202.644531 329.269531 203.3125 331.089844 204.066406 C 332.914062 204.824219 334.695312 205.664062 336.433594 206.597656 C 338.171875 207.527344 339.863281 208.539062 341.503906 209.636719 C 343.144531 210.734375 344.726562 211.90625 346.25 213.160156 C 347.773438 214.410156 349.234375 215.734375 350.628906 217.128906 C 352.023438 218.523438 353.347656 219.984375 354.601562 221.507812 C 355.851562 223.035156 357.027344 224.617188 358.121094 226.257812 C 359.21875 227.894531 360.230469 229.585938 361.164062 231.324219 C 362.09375 233.066406 362.9375 234.847656 363.691406 236.667969 C 364.449219 238.488281 365.113281 240.34375 365.6875 242.234375 C 366.261719 244.121094 366.738281 246.03125 367.125 247.964844 C 367.511719 249.898438 367.804688 251.847656 367.996094 253.8125 C 368.191406 255.777344 368.292969 257.742188 368.292969 259.714844 Z M 368.292969 259.714844 " fill-opacity="1" fill-rule="nonzero"/></g><g clip-path="url(#a6f9a1fd33)"><path fill="#000000" d="M 175.621094 67.042969 L 175.621094 153.421875 C 175.617188 154.148438 175.582031 154.875 175.511719 155.597656 C 175.4375 156.320312 175.332031 157.039062 175.1875 157.75 C 175.046875 158.464844 174.871094 159.167969 174.660156 159.863281 C 174.445312 160.558594 174.203125 161.242188 173.921875 161.914062 C 173.644531 162.585938 173.335938 163.242188 172.992188 163.882812 C 172.648438 164.523438 172.273438 165.144531 171.871094 165.75 C 171.46875 166.351562 171.035156 166.9375 170.574219 167.496094 C 170.113281 168.058594 169.625 168.597656 169.109375 169.109375 C 168.597656 169.625 168.058594 170.113281 167.496094 170.574219 C 166.9375 171.035156 166.351562 171.46875 165.75 171.871094 C 165.144531 172.273438 164.523438 172.648438 163.882812 172.992188 C 163.242188 173.335938 162.585938 173.644531 161.914062 173.921875 C 161.242188 174.203125 160.558594 174.445312 159.863281 174.660156 C 159.167969 174.871094 158.464844 175.046875 157.75 175.1875 C 157.039062 175.332031 156.320312 175.4375 155.597656 175.511719 C 154.875 175.582031 154.148438 175.617188 153.421875 175.621094 L 67.042969 175.621094 C 65.070312 175.617188 63.101562 175.519531 61.140625 175.324219 C 59.175781 175.128906 57.226562 174.839844 55.292969 174.453125 C 53.359375 174.066406 51.445312 173.585938 49.558594 173.011719 C 47.671875 172.441406 45.816406 171.773438 43.996094 171.019531 C 42.171875 170.261719 40.390625 169.421875 38.652344 168.488281 C 36.914062 167.558594 35.222656 166.546875 33.582031 165.449219 C 31.941406 164.351562 30.359375 163.179688 28.835938 161.925781 C 27.3125 160.675781 25.851562 159.351562 24.457031 157.957031 C 23.0625 156.5625 21.738281 155.101562 20.484375 153.578125 C 19.234375 152.050781 18.058594 150.46875 16.964844 148.828125 C 15.867188 147.191406 14.855469 145.5 13.921875 143.761719 C 12.992188 142.019531 12.148438 140.242188 11.394531 138.417969 C 10.636719 136.597656 9.972656 134.742188 9.398438 132.851562 C 8.824219 130.964844 8.347656 129.054688 7.960938 127.121094 C 7.574219 125.1875 7.28125 123.238281 7.089844 121.273438 C 6.894531 119.3125 6.792969 117.34375 6.792969 115.371094 L 6.792969 67.042969 C 6.792969 65.070312 6.894531 63.101562 7.089844 61.140625 C 7.28125 59.175781 7.574219 57.226562 7.960938 55.292969 C 8.347656 53.359375 8.824219 51.445312 9.398438 49.558594 C 9.972656 47.671875 10.636719 45.816406 11.394531 43.996094 C 12.148438 42.171875 12.992188 40.390625 13.921875 38.652344 C 14.855469 36.914062 15.867188 35.222656 16.964844 33.582031 C 18.058594 31.941406 19.234375 30.359375 20.484375 28.835938 C 21.738281 27.3125 23.0625 25.851562 24.457031 24.457031 C 25.851562 23.0625 27.3125 21.738281 28.835938 20.484375 C 30.359375 19.234375 31.941406 18.058594 33.582031 16.964844 C 35.222656 15.867188 36.914062 14.855469 38.652344 13.921875 C 40.390625 12.992188 42.171875 12.148438 43.996094 11.394531 C 45.816406 10.636719 47.671875 9.972656 49.558594 9.398438 C 51.445312 8.824219 53.359375 8.347656 55.292969 7.960938 C 57.226562 7.574219 59.175781 7.28125 61.140625 7.089844 C 63.101562 6.894531 65.070312 6.792969 67.042969 6.792969 L 115.371094 6.792969 C 117.34375 6.792969 119.3125 6.894531 121.273438 7.089844 C 123.238281 7.28125 125.1875 7.574219 127.121094 7.960938 C 129.054688 8.347656 130.964844 8.824219 132.851562 9.398438 C 134.742188 9.972656 136.597656 10.636719 138.417969 11.394531 C 140.242188 12.148438 142.019531 12.992188 143.761719 13.921875 C 145.5 14.855469 147.191406 15.867188 148.828125 16.964844 C 150.46875 18.058594 152.050781 19.234375 153.578125 20.484375 C 155.101562 21.738281 156.5625 23.0625 157.957031 24.457031 C 159.351562 25.851562 160.675781 27.3125 161.925781 28.835938 C 163.179688 30.359375 164.351562 31.941406 165.449219 33.582031 C 166.546875 35.222656 167.558594 36.914062 168.488281 38.652344 C 169.421875 40.390625 170.261719 42.171875 171.019531 43.996094 C 171.773438 45.816406 172.441406 47.671875 173.011719 49.558594 C 173.585938 51.445312 174.066406 53.359375 174.453125 55.292969 C 174.839844 57.226562 175.128906 59.175781 175.324219 61.140625 C 175.519531 63.101562 175.617188 65.070312 175.621094 67.042969 Z M 175.621094 67.042969 " fill-opacity="1" fill-rule="nonzero"/></g><g clip-path="url(#0c08116e46)"><path fill="#000000" d="M 368.292969 67.042969 L 368.292969 115.371094 C 368.292969 117.34375 368.191406 119.308594 367.996094 121.273438 C 367.804688 123.238281 367.511719 125.1875 367.125 127.121094 C 366.738281 129.054688 366.261719 130.964844 365.6875 132.851562 C 365.113281 134.742188 364.449219 136.597656 363.691406 138.417969 C 362.9375 140.242188 362.09375 142.019531 361.164062 143.761719 C 360.230469 145.5 359.21875 147.191406 358.121094 148.828125 C 357.027344 150.46875 355.851562 152.050781 354.601562 153.578125 C 353.347656 155.101562 352.023438 156.5625 350.628906 157.957031 C 349.234375 159.351562 347.773438 160.675781 346.25 161.925781 C 344.726562 163.179688 343.144531 164.351562 341.503906 165.449219 C 339.863281 166.546875 338.171875 167.558594 336.433594 168.488281 C 334.695312 169.421875 332.914062 170.261719 331.089844 171.019531 C 329.269531 171.773438 327.414062 172.441406 325.527344 173.011719 C 323.640625 173.585938 321.726562 174.066406 319.792969 174.453125 C 317.859375 174.839844 315.910156 175.128906 313.945312 175.324219 C 311.984375 175.519531 310.015625 175.617188 308.042969 175.621094 L 221.664062 175.621094 C 220.9375 175.617188 220.210938 175.582031 219.488281 175.511719 C 218.765625 175.4375 218.046875 175.332031 217.335938 175.1875 C 216.621094 175.046875 215.917969 174.871094 215.222656 174.660156 C 214.527344 174.445312 213.84375 174.203125 213.171875 173.921875 C 212.5 173.644531 211.84375 173.335938 211.203125 172.992188 C 210.5625 172.648438 209.941406 172.273438 209.335938 171.871094 C 208.734375 171.46875 208.148438 171.035156 207.589844 170.574219 C 207.027344 170.113281 206.488281 169.625 205.976562 169.109375 C 205.460938 168.597656 204.972656 168.058594 204.511719 167.496094 C 204.050781 166.9375 203.617188 166.351562 203.214844 165.75 C 202.8125 165.144531 202.4375 164.523438 202.09375 163.882812 C 201.75 163.242188 201.441406 162.585938 201.164062 161.914062 C 200.882812 161.242188 200.640625 160.558594 200.425781 159.863281 C 200.214844 159.167969 200.039062 158.464844 199.898438 157.75 C 199.753906 157.039062 199.648438 156.320312 199.574219 155.597656 C 199.503906 154.875 199.46875 154.148438 199.464844 153.421875 L 199.464844 67.042969 C 199.46875 65.070312 199.566406 63.101562 199.761719 61.140625 C 199.957031 59.175781 200.246094 57.226562 200.632812 55.292969 C 201.019531 53.359375 201.5 51.445312 202.074219 49.558594 C 202.648438 47.671875 203.3125 45.816406 204.066406 43.996094 C 204.824219 42.171875 205.664062 40.390625 206.597656 38.652344 C 207.527344 36.914062 208.539062 35.222656 209.636719 33.582031 C 210.734375 31.941406 211.90625 30.359375 213.160156 28.835938 C 214.410156 27.3125 215.734375 25.851562 217.128906 24.457031 C 218.523438 23.0625 219.984375 21.738281 221.507812 20.484375 C 223.035156 19.234375 224.617188 18.058594 226.257812 16.964844 C 227.894531 15.867188 229.585938 14.855469 231.324219 13.921875 C 233.066406 12.992188 234.847656 12.148438 236.667969 11.394531 C 238.488281 10.636719 240.34375 9.972656 242.234375 9.398438 C 244.121094 8.824219 246.03125 8.347656 247.964844 7.960938 C 249.898438 7.574219 251.847656 7.28125 253.8125 7.089844 C 255.777344 6.894531 257.742188 6.792969 259.714844 6.792969 L 308.042969 6.792969 C 310.015625 6.792969 311.984375 6.894531 313.945312 7.089844 C 315.910156 7.28125 317.859375 7.574219 319.792969 7.960938 C 321.726562 8.347656 323.640625 8.824219 325.527344 9.398438 C 327.414062 9.972656 329.269531 10.636719 331.089844 11.394531 C 332.914062 12.148438 334.695312 12.992188 336.433594 13.921875 C 338.171875 14.855469 339.863281 15.867188 341.503906 16.964844 C 343.144531 18.058594 344.726562 19.234375 346.25 20.484375 C 347.773438 21.738281 349.234375 23.0625 350.628906 24.457031 C 352.023438 25.851562 353.347656 27.3125 354.601562 28.835938 C 355.851562 30.359375 357.027344 31.941406 358.121094 33.582031 C 359.21875 35.222656 360.230469 36.914062 361.164062 38.652344 C 362.09375 40.390625 362.9375 42.171875 363.691406 43.996094 C 364.449219 45.816406 365.113281 47.671875 365.6875 49.558594 C 366.261719 51.445312 366.738281 53.359375 367.125 55.292969 C 367.511719 57.226562 367.804688 59.175781 367.996094 61.140625 C 368.191406 63.101562 368.292969 65.070312 368.292969 67.042969 Z M 368.292969 67.042969 " fill-opacity="1" fill-rule="nonzero"/></g></svg>