<svg xmlns="http://www.w3.org/2000/svg" xmlns:xlink="http://www.w3.org/1999/xlink" width="500" zoomAndPan="magnify" viewBox="0 0 375 374.999991" height="500" preserveAspectRatio="xMidYMid meet" version="1.2"><defs><clipPath id="c58c91bce4"><path d="M 0 7.03125 L 375 7.03125 L 375 367.78125 L 0 367.78125 Z M 0 7.03125 "/></clipPath></defs><g id="8a2aaca951"><g clip-rule="nonzero" clip-path="url(#c58c91bce4)"><path style=" stroke:none;fill-rule:nonzero;fill:#0097b2;fill-opacity:1;" d="M 14.054688 7.453125 L 7.449219 14.058594 L 89.628906 96.230469 L 96.601562 103.210938 L 254.328125 260.941406 C 254.359375 260.972656 254.390625 261 254.421875 261.03125 L 360.75 367.359375 L 367.355469 360.753906 L 268.96875 262.367188 L 318.585938 262.367188 C 349.597656 262.367188 374.804688 237.160156 374.804688 206.144531 C 374.804688 181.597656 359.109375 160.277344 336.109375 152.78125 C 336.902344 148.65625 337.324219 144.585938 337.324219 140.554688 C 337.324219 104.386719 307.902344 74.964844 271.734375 74.964844 C 267.984375 74.964844 264.191406 75.296875 260.351562 76 C 247.792969 47.183594 218.980469 28.113281 187.402344 28.113281 C 150.296875 28.113281 118.253906 53.738281 109.914062 89.53125 C 109.777344 89.53125 109.625 89.585938 109.484375 89.632812 C 105.785156 90.101562 102.179688 90.941406 98.761719 92.160156 Z M 187.402344 37.484375 C 216.449219 37.484375 242.871094 55.804688 253.128906 83.027344 L 253.214844 83.246094 C 253.125 83.605469 252.992188 83.949219 252.992188 84.335938 C 252.992188 86.921875 255.09375 89.019531 257.679688 89.019531 C 259.921875 89.019531 261.714844 87.40625 262.171875 85.296875 C 265.398438 84.730469 268.617188 84.335938 271.734375 84.335938 C 302.75 84.335938 327.953125 109.539062 327.953125 140.554688 C 327.953125 145.242188 327.296875 150.070312 326.03125 154.894531 L 324.816406 159.535156 L 329.5 160.605469 C 350.628906 165.664062 365.433594 184.40625 365.433594 206.144531 C 365.433594 231.960938 344.398438 252.996094 318.585938 252.996094 L 259.601562 252.996094 L 106.300781 99.699219 C 108.832031 99.089844 111.410156 98.714844 114.078125 98.527344 L 116.917969 98.34375 C 116.992188 98.347656 117.050781 98.390625 117.125 98.390625 C 117.273438 98.390625 117.394531 98.320312 117.539062 98.308594 L 117.683594 98.296875 L 117.695312 98.28125 C 120 97.988281 121.8125 96.089844 121.8125 93.703125 C 121.8125 92.027344 120.878906 90.625 119.550781 89.796875 C 127.609375 59.210938 155.328125 37.484375 187.402344 37.484375 Z M 135.867188 89.019531 C 133.28125 89.019531 131.183594 91.117188 131.183594 93.703125 C 131.183594 96.292969 133.28125 98.390625 135.867188 98.390625 C 138.453125 98.390625 140.550781 96.292969 140.550781 93.703125 C 140.550781 91.117188 138.453125 89.019531 135.867188 89.019531 Z M 154.605469 98.390625 C 152.019531 98.390625 149.921875 100.488281 149.921875 103.074219 C 149.921875 105.660156 152.019531 107.761719 154.605469 107.761719 C 157.191406 107.761719 159.292969 105.660156 159.292969 103.074219 C 159.292969 100.488281 157.191406 98.390625 154.605469 98.390625 Z M 262.363281 98.390625 C 259.777344 98.390625 257.679688 100.488281 257.679688 103.074219 C 257.679688 105.660156 259.777344 107.761719 262.363281 107.761719 C 264.949219 107.761719 267.046875 105.660156 267.046875 103.074219 C 267.046875 100.488281 264.949219 98.390625 262.363281 98.390625 Z M 81.75 101.621094 C 72.566406 109.023438 65.734375 119.285156 62.691406 131.230469 C 27.878906 132.777344 0 161.589844 0 196.777344 C 0 232.945312 29.421875 262.367188 65.589844 262.367188 L 93.703125 262.367188 C 96.277344 262.367188 98.386719 260.257812 98.386719 257.683594 C 98.386719 255.105469 96.277344 252.996094 93.703125 252.996094 L 65.589844 252.996094 C 34.574219 252.996094 9.371094 227.792969 9.371094 196.777344 C 9.371094 181.269531 15.644531 167.210938 25.859375 157.042969 C 36.074219 146.832031 50.128906 140.554688 65.683594 140.554688 L 70.367188 140.601562 L 70.375 140.539062 C 72.914062 140.480469 74.960938 138.421875 74.960938 135.871094 C 74.960938 134.03125 73.871094 132.472656 72.324219 131.707031 C 75.183594 122.222656 80.859375 114.101562 88.402344 108.273438 Z M 168.664062 112.445312 C 166.078125 112.445312 163.976562 114.542969 163.976562 117.128906 C 163.976562 119.714844 166.078125 121.816406 168.664062 121.816406 C 171.25 121.816406 173.347656 119.714844 173.347656 117.128906 C 173.347656 114.542969 171.25 112.445312 168.664062 112.445312 Z M 262.363281 117.128906 C 259.777344 117.128906 257.679688 119.230469 257.679688 121.816406 C 257.679688 124.402344 259.777344 126.5 262.363281 126.5 C 264.949219 126.5 267.046875 124.402344 267.046875 121.816406 C 267.046875 119.230469 264.949219 117.128906 262.363281 117.128906 Z M 89.015625 131.183594 C 86.429688 131.183594 84.332031 133.285156 84.332031 135.871094 C 84.332031 138.457031 86.429688 140.554688 89.015625 140.554688 C 91.601562 140.554688 93.703125 138.457031 93.703125 135.871094 C 93.703125 133.285156 91.601562 131.183594 89.015625 131.183594 Z M 107.757812 140.554688 C 105.171875 140.554688 103.070312 142.65625 103.070312 145.242188 C 103.070312 147.828125 105.171875 149.925781 107.757812 149.925781 C 110.34375 149.925781 112.441406 147.828125 112.441406 145.242188 C 112.441406 142.65625 110.34375 140.554688 107.757812 140.554688 Z M 121.8125 154.609375 C 119.226562 154.609375 117.125 156.710938 117.125 159.296875 C 117.125 161.882812 119.226562 163.980469 121.8125 163.980469 C 124.398438 163.980469 126.496094 161.882812 126.496094 159.296875 C 126.496094 156.710938 124.398438 154.609375 121.8125 154.609375 Z M 323.269531 168.664062 C 320.683594 168.664062 318.585938 170.765625 318.585938 173.351562 C 318.585938 175.9375 320.683594 178.035156 323.269531 178.035156 C 325.855469 178.035156 327.953125 175.9375 327.953125 173.351562 C 327.953125 170.765625 325.855469 168.664062 323.269531 168.664062 Z M 313.898438 182.722656 C 311.3125 182.722656 309.214844 184.820312 309.214844 187.40625 C 309.214844 189.992188 311.3125 192.089844 313.898438 192.089844 C 316.484375 192.089844 318.585938 189.992188 318.585938 187.40625 C 318.585938 184.820312 316.484375 182.722656 313.898438 182.722656 Z M 169.421875 196.839844 L 165.414062 198.085938 L 164.445312 199.421875 L 158.332031 212.085938 L 158.394531 216.277344 L 161.789062 218.746094 L 165.796875 217.492188 L 166.769531 216.15625 L 172.878906 203.503906 L 172.816406 199.300781 Z M 192.773438 215.570312 L 188.785156 216.878906 L 187.84375 218.226562 L 181.921875 230.980469 L 182.039062 235.171875 L 185.480469 237.585938 L 189.46875 236.277344 L 190.421875 234.925781 L 196.332031 222.179688 L 196.214844 217.976562 Z M 151.085938 234.804688 L 147.078125 236.058594 L 146.117188 237.394531 L 140.003906 250.050781 L 140.066406 254.25 L 143.460938 256.710938 L 147.46875 255.46875 L 148.441406 254.132812 L 154.550781 241.46875 L 154.488281 237.277344 Z M 217.324219 240.003906 C 216.757812 239.972656 216.1875 240.039062 215.648438 240.203125 C 214.433594 240.625 213.402344 241.519531 212.839844 242.785156 L 207.132812 255.625 C 206.101562 257.964844 207.175781 260.777344 209.519531 261.808594 C 210.128906 262.089844 210.785156 262.230469 211.441406 262.230469 C 213.222656 262.230469 214.898438 261.144531 215.695312 259.410156 L 221.414062 246.582031 C 221.507812 246.441406 221.550781 246.246094 221.550781 246.105469 C 222.300781 243.859375 221.277344 241.378906 219.027344 240.398438 C 218.464844 240.164062 217.894531 240.03125 217.324219 240.003906 Z M 175.023438 253.8125 L 171.03125 255.121094 L 170.082031 256.472656 L 164.160156 269.222656 L 164.289062 273.421875 L 167.730469 275.828125 L 171.710938 274.519531 L 172.660156 273.164062 L 178.582031 260.417969 L 178.453125 256.226562 Z M 132.753906 272.78125 L 128.746094 274.035156 L 127.777344 275.371094 L 121.664062 288.023438 L 121.730469 292.226562 L 125.132812 294.6875 L 129.140625 293.433594 L 130.109375 292.097656 L 136.214844 279.441406 L 136.160156 275.242188 Z M 200.09375 278.519531 C 198.261719 278.496094 196.511719 279.535156 195.738281 281.289062 L 190.027344 294.128906 C 188.953125 296.519531 190.027344 299.285156 192.371094 300.3125 C 193.027344 300.59375 193.636719 300.734375 194.292969 300.734375 C 196.074219 300.734375 197.804688 299.707031 198.601562 297.972656 L 204.265625 285.089844 C 205.34375 282.746094 204.265625 279.980469 201.925781 278.902344 C 201.328125 278.644531 200.707031 278.523438 200.09375 278.519531 Z M 157.261719 292.0625 L 153.269531 293.371094 L 152.328125 294.714844 L 146.410156 307.46875 L 146.535156 311.660156 L 149.96875 314.078125 L 153.957031 312.757812 L 154.910156 311.414062 L 160.820312 298.667969 L 160.703125 294.46875 Z M 114.425781 310.753906 L 110.417969 312 L 109.449219 313.34375 L 103.335938 326 L 103.402344 330.199219 L 106.796875 332.660156 L 110.804688 331.40625 L 111.773438 330.070312 L 117.886719 317.417969 L 117.820312 313.214844 Z M 182.972656 317.070312 C 181.148438 317.035156 179.363281 318.058594 178.589844 319.851562 L 173.769531 330.722656 C 172.691406 333.109375 173.769531 335.875 176.109375 336.90625 C 176.765625 337.1875 177.375 337.328125 178.03125 337.328125 C 179.8125 337.328125 181.546875 336.296875 182.296875 334.566406 L 187.164062 323.648438 C 188.195312 321.257812 187.164062 318.492188 184.777344 317.460938 C 184.191406 317.203125 183.582031 317.078125 182.972656 317.070312 Z M 139.507812 330.300781 L 135.519531 331.609375 L 134.566406 332.964844 L 128.648438 345.710938 L 128.773438 349.910156 L 132.214844 352.316406 L 136.195312 351.007812 L 137.148438 349.652344 L 143.066406 336.90625 L 142.941406 332.714844 Z M 139.507812 330.300781 "/></g></g></svg>